<svg xmlns="http://www.w3.org/2000/svg" xmlns:xlink="http://www.w3.org/1999/xlink" width="50" zoomAndPan="magnify" viewBox="0 0 37.5 37.499999" height="50" preserveAspectRatio="xMidYMid meet" version="1.0"><defs><clipPath id="7fed5d2229"><path d="M 5 5 L 32.917969 5 L 32.917969 32.917969 L 5 32.917969 Z M 5 5 " clip-rule="nonzero"/></clipPath></defs><path fill="#000000" d="M 22.929688 13.203125 C 22.890625 13.242188 22.84375 13.277344 22.792969 13.308594 C 22.480469 13.484375 22.085938 13.375 21.910156 13.066406 C 21.621094 12.5625 21.265625 12.097656 20.851562 11.679688 C 20.597656 11.429688 20.597656 11.019531 20.851562 10.765625 C 21.105469 10.511719 21.515625 10.511719 21.769531 10.765625 C 22.265625 11.261719 22.691406 11.820312 23.035156 12.425781 C 23.183594 12.683594 23.132812 13.003906 22.929688 13.203125 " fill-opacity="1" fill-rule="nonzero"/><path fill="#000000" d="M 19.691406 10.238281 C 19.503906 10.421875 19.214844 10.484375 18.964844 10.367188 C 17.453125 9.675781 15.683594 9.597656 14.113281 10.148438 C 13.777344 10.265625 13.40625 10.089844 13.289062 9.753906 C 13.167969 9.414062 13.347656 9.042969 13.683594 8.925781 C 15.59375 8.253906 17.660156 8.347656 19.5 9.1875 C 19.828125 9.335938 19.96875 9.722656 19.820312 10.046875 C 19.789062 10.121094 19.742188 10.183594 19.691406 10.238281 " fill-opacity="1" fill-rule="nonzero"/><g clip-path="url(#7fed5d2229)"><path fill="#000000" d="M 24.902344 16.265625 C 24.902344 18.574219 24.003906 20.742188 22.375 22.375 C 20.742188 24.003906 18.574219 24.902344 16.265625 24.902344 C 13.960938 24.902344 11.789062 24.003906 10.160156 22.375 C 8.527344 20.742188 7.628906 18.574219 7.628906 16.265625 C 7.628906 13.960938 8.527344 11.789062 10.160156 10.160156 C 11.789062 8.527344 13.960938 7.628906 16.265625 7.628906 C 18.574219 7.628906 20.742188 8.527344 22.375 10.160156 C 24.003906 11.789062 24.902344 13.960938 24.902344 16.265625 Z M 8.632812 8.632812 C 4.417969 12.847656 4.417969 19.683594 8.632812 23.902344 C 12.679688 27.945312 19.132812 28.109375 23.375 24.394531 L 23.785156 24.800781 C 23.65625 25.28125 23.777344 25.816406 24.15625 26.191406 L 30.316406 32.351562 C 30.878906 32.914062 31.789062 32.914062 32.351562 32.351562 C 32.914062 31.789062 32.914062 30.878906 32.351562 30.316406 L 26.191406 24.15625 C 25.816406 23.777344 25.28125 23.65625 24.800781 23.785156 L 24.394531 23.375 C 28.109375 19.132812 27.945312 12.679688 23.902344 8.632812 C 19.683594 4.417969 12.847656 4.417969 8.632812 8.632812 " fill-opacity="1" fill-rule="nonzero"/></g></svg>